<?xml version="1.0" encoding="utf-8"?>
<!-- Generator: Adobe Illustrator 23.0.2, SVG Export Plug-In . SVG Version: 6.00 Build 0)  -->
<svg version="1.1" id="Livello_1" xmlns="http://www.w3.org/2000/svg" xmlns:xlink="http://www.w3.org/1999/xlink" x="0px" y="0px"
	 viewBox="0 0 283.5 283.5" style="enable-background:new 0 0 283.5 283.5;" xml:space="preserve">
<style type="text/css">
	.st0{display:none;}
	.st1{display:inline;}
	.st2{clip-path:url(#SVGID_2_);fill:#231F20;}
	.st3{clip-path:url(#SVGID_4_);fill:#231F20;}
	.st4{clip-path:url(#SVGID_6_);fill:#231F20;}
	.st5{clip-path:url(#SVGID_8_);fill:#231F20;}
	.st6{clip-path:url(#SVGID_10_);fill:#231F20;}
	.st7{clip-path:url(#SVGID_12_);fill:#231F20;}
	.st8{clip-path:url(#SVGID_14_);fill:none;stroke:#000000;stroke-width:1.159;}
	.st9{fill:none;stroke:#000000;stroke-width:20;stroke-miterlimit:10;}
</style>
<g id="Layer_1" class="st0">
	<g class="st1">
		<g>
			<defs>
				<rect id="SVGID_1_" x="-0.7" y="0" width="283.5" height="283.5"/>
			</defs>
			<clipPath id="SVGID_2_">
				<use xlink:href="#SVGID_1_"  style="overflow:visible;"/>
			</clipPath>
			<path class="st2" d="M141.1,33.6C81.5,33.6,33,82.1,33,141.7c0,59.6,48.5,108.1,108.1,108.1c59.6,0,108.1-48.5,108.1-108.1
				C249.1,82.1,200.7,33.6,141.1,33.6 M141.1,283.5c-78.2,0-141.7-63.6-141.7-141.7C-0.7,63.6,62.9,0,141.1,0
				c78.1,0,141.7,63.6,141.7,141.7C282.8,219.9,219.2,283.5,141.1,283.5"/>
		</g>
		<g>
			<defs>
				<rect id="SVGID_3_" x="-0.7" y="0" width="283.5" height="283.5"/>
			</defs>
			<clipPath id="SVGID_4_">
				<use xlink:href="#SVGID_3_"  style="overflow:visible;"/>
			</clipPath>
			<path class="st3" d="M148.6,187.5v-45.8h13.5l1.8-15.8h-15.3l0-7.9c0-4.1,0.4-6.3,6.7-6.3h8.5V95.9h-13.5c-16.3,0-22,7.7-22,20.5
				v9.5h-10.1v15.8h10.1v45.8H148.6z"/>
		</g>
	</g>
</g>
<g id="Layer_3" class="st0">
	<g class="st1">
		<g>
			<defs>
				<rect id="SVGID_5_" x="0" y="0" width="283.5" height="283.5"/>
			</defs>
			<clipPath id="SVGID_6_">
				<use xlink:href="#SVGID_5_"  style="overflow:visible;"/>
			</clipPath>
			<path class="st4" d="M141.7,33.7c-59.6,0-108.1,48.5-108.1,108.1c0,59.6,48.5,108.1,108.1,108.1c59.6,0,108.1-48.5,108.1-108.1
				C249.8,82.1,201.3,33.7,141.7,33.7 M141.7,283.5C63.6,283.5,0,219.9,0,141.7C0,63.6,63.6,0,141.7,0
				c78.2,0,141.7,63.6,141.7,141.7C283.5,219.9,219.9,283.5,141.7,283.5"/>
		</g>
		<g>
			<defs>
				<rect id="SVGID_7_" x="0" y="0" width="283.5" height="283.5"/>
			</defs>
			<clipPath id="SVGID_8_">
				<use xlink:href="#SVGID_7_"  style="overflow:visible;"/>
			</clipPath>
			<path class="st5" d="M175.1,164.7h-66.8v-42.3l30.8,24.6c0.8,0.6,1.7,0.9,2.6,0.9c0.9,0,1.8-0.3,2.6-0.9l30.8-24.6V164.7z
				 M166.4,118.8l-24.6,19.7l-24.6-19.7C117.1,118.8,166.4,118.8,166.4,118.8z M183.5,115.8L183.5,115.8c-0.3-3-2.9-5.4-5.9-5.4
				h-71.7c-3.1,0-5.6,2.3-5.9,5.3l0,0l0,0c0,0.2,0,0.4,0,0.5v50.8c0,3.3,2.7,5.9,5.9,5.9h71.7c3.3,0,5.9-2.7,5.9-5.9v-50.8
				C183.5,116.2,183.5,116,183.5,115.8L183.5,115.8z"/>
		</g>
	</g>
</g>
<g id="Layer_4" class="st0">
	<g class="st1">
		<g>
			<defs>
				<rect id="SVGID_9_" y="0" width="283.5" height="283.5"/>
			</defs>
			<clipPath id="SVGID_10_">
				<use xlink:href="#SVGID_9_"  style="overflow:visible;"/>
			</clipPath>
			<path class="st6" d="M141.7,33.6c-59.6,0-108.1,48.5-108.1,108.1c0,59.6,48.5,108.1,108.1,108.1c59.6,0,108.1-48.5,108.1-108.1
				S201.3,33.6,141.7,33.6 M141.7,283.5C63.6,283.5,0,219.9,0,141.7C0,63.6,63.6,0,141.7,0c78.2,0,141.7,63.6,141.7,141.7
				C283.5,219.9,219.9,283.5,141.7,283.5"/>
		</g>
		<g>
			<defs>
				<rect id="SVGID_11_" y="0" width="283.5" height="283.5"/>
			</defs>
			<clipPath id="SVGID_12_">
				<use xlink:href="#SVGID_11_"  style="overflow:visible;"/>
			</clipPath>
			<path class="st7" d="M172.4,129.2c0-17-13.8-30.6-30.7-30.6c-17,0-30.6,13.8-30.6,30.8c0,6.1,2.1,11.9,5,16.7v0l-0.1,0
				c0.2,0.3,0.3,0.6,0.5,0.8l25.2,37.8l25.3-37.9c0.1-0.2,0.2-0.6,0.4-0.8l0.1-0.5C170.6,141.7,172.4,135.4,172.4,129.2"/>
		</g>
		<g>
			<defs>
				<rect id="SVGID_13_" y="0" width="283.5" height="283.5"/>
			</defs>
			<clipPath id="SVGID_14_">
				<use xlink:href="#SVGID_13_"  style="overflow:visible;"/>
			</clipPath>
			<path class="st8" d="M172.4,129.2c0-17-13.8-30.6-30.7-30.6c-17,0-30.6,13.8-30.6,30.8c0,6.1,2.1,11.9,5,16.7v0l-0.1,0
				c0.2,0.3,0.3,0.6,0.5,0.8l25.2,37.8l25.3-37.9c0.1-0.2,0.2-0.6,0.4-0.8l0.1-0.5C170.6,141.7,172.4,135.4,172.4,129.2z"/>
		</g>
	</g>
</g>
<g>
	<defs>
		<rect id="SVGID_15_" x="-0.7" y="-0.7" width="283.5" height="283.5"/>
	</defs>
	<clipPath id="SVGID_16_">
		<use xlink:href="#SVGID_15_"  style="overflow:visible;"/>
	</clipPath>
</g>
<circle class="st9" cx="141.1" cy="141" r="124"/>
<path d="M157,96.7h15.2V73.4h-20.8c-23.1,0-28.4,17.3-28.4,28.3v15.5h-13.3v23.6H123v67.8h28.1v-67.8h19l2.5-23.9h-21.4v-13.8
	c-0.5-3,1.5-5.8,4.5-6.3C156.1,96.7,156.5,96.7,157,96.7z"/>
</svg>
