<?xml version="1.0" encoding="utf-8"?>
<!-- Generator: Adobe Illustrator 23.0.2, SVG Export Plug-In . SVG Version: 6.00 Build 0)  -->
<svg version="1.1" id="Livello_1" xmlns="http://www.w3.org/2000/svg" xmlns:xlink="http://www.w3.org/1999/xlink" x="0px" y="0px"
	 viewBox="0 0 283.5 283.5" style="enable-background:new 0 0 283.5 283.5;" xml:space="preserve">
<style type="text/css">
	.st0{display:none;}
	.st1{display:inline;}
	.st2{clip-path:url(#SVGID_2_);fill:#231F20;}
	.st3{clip-path:url(#SVGID_4_);fill:#231F20;}
	.st4{clip-path:url(#SVGID_6_);fill:#231F20;}
	.st5{clip-path:url(#SVGID_8_);fill:#231F20;}
	.st6{clip-path:url(#SVGID_10_);fill:#231F20;}
	.st7{clip-path:url(#SVGID_12_);fill:#231F20;}
	.st8{clip-path:url(#SVGID_14_);fill:none;stroke:#000000;stroke-width:1.159;}
	.st9{fill:none;stroke:#000000;stroke-width:20;stroke-miterlimit:10;}
</style>
<g id="Layer_1" class="st0">
	<g class="st1">
		<g>
			<defs>
				<rect id="SVGID_1_" x="-0.7" y="0" width="283.5" height="283.5"/>
			</defs>
			<clipPath id="SVGID_2_">
				<use xlink:href="#SVGID_1_"  style="overflow:visible;"/>
			</clipPath>
			<path class="st2" d="M141.1,33.6C81.5,33.6,33,82.1,33,141.7c0,59.6,48.5,108.1,108.1,108.1c59.6,0,108.1-48.5,108.1-108.1
				C249.1,82.1,200.7,33.6,141.1,33.6 M141.1,283.5c-78.2,0-141.7-63.6-141.7-141.7C-0.7,63.6,62.9,0,141.1,0
				c78.1,0,141.7,63.6,141.7,141.7C282.8,219.9,219.2,283.5,141.1,283.5"/>
		</g>
		<g>
			<defs>
				<rect id="SVGID_3_" x="-0.7" y="0" width="283.5" height="283.5"/>
			</defs>
			<clipPath id="SVGID_4_">
				<use xlink:href="#SVGID_3_"  style="overflow:visible;"/>
			</clipPath>
			<path class="st3" d="M148.6,187.5v-45.8h13.5l1.8-15.8h-15.3l0-7.9c0-4.1,0.4-6.3,6.7-6.3h8.5V95.9h-13.5c-16.3,0-22,7.7-22,20.5
				v9.5h-10.1v15.8h10.1v45.8H148.6z"/>
		</g>
	</g>
</g>
<g id="Layer_3" class="st0">
	<g class="st1">
		<g>
			<defs>
				<rect id="SVGID_5_" x="0" y="0" width="283.5" height="283.5"/>
			</defs>
			<clipPath id="SVGID_6_">
				<use xlink:href="#SVGID_5_"  style="overflow:visible;"/>
			</clipPath>
			<path class="st4" d="M141.7,33.7c-59.6,0-108.1,48.5-108.1,108.1c0,59.6,48.5,108.1,108.1,108.1c59.6,0,108.1-48.5,108.1-108.1
				C249.8,82.1,201.3,33.7,141.7,33.7 M141.7,283.5C63.6,283.5,0,219.9,0,141.7C0,63.6,63.6,0,141.7,0
				c78.2,0,141.7,63.6,141.7,141.7C283.5,219.9,219.9,283.5,141.7,283.5"/>
		</g>
		<g>
			<defs>
				<rect id="SVGID_7_" x="0" y="0" width="283.5" height="283.5"/>
			</defs>
			<clipPath id="SVGID_8_">
				<use xlink:href="#SVGID_7_"  style="overflow:visible;"/>
			</clipPath>
			<path class="st5" d="M175.1,164.7h-66.8v-42.3l30.8,24.6c0.8,0.6,1.7,0.9,2.6,0.9c0.9,0,1.8-0.3,2.6-0.9l30.8-24.6V164.7z
				 M166.4,118.8l-24.6,19.7l-24.6-19.7C117.1,118.8,166.4,118.8,166.4,118.8z M183.5,115.8L183.5,115.8c-0.3-3-2.9-5.4-5.9-5.4
				h-71.7c-3.1,0-5.6,2.3-5.9,5.3l0,0l0,0c0,0.2,0,0.4,0,0.5v50.8c0,3.3,2.7,5.9,5.9,5.9h71.7c3.3,0,5.9-2.7,5.9-5.9v-50.8
				C183.5,116.2,183.5,116,183.5,115.8L183.5,115.8z"/>
		</g>
	</g>
</g>
<g id="Layer_4" class="st0">
	<g class="st1">
		<g>
			<defs>
				<rect id="SVGID_9_" y="0" width="283.5" height="283.5"/>
			</defs>
			<clipPath id="SVGID_10_">
				<use xlink:href="#SVGID_9_"  style="overflow:visible;"/>
			</clipPath>
			<path class="st6" d="M141.7,33.6c-59.6,0-108.1,48.5-108.1,108.1c0,59.6,48.5,108.1,108.1,108.1c59.6,0,108.1-48.5,108.1-108.1
				S201.3,33.6,141.7,33.6 M141.7,283.5C63.6,283.5,0,219.9,0,141.7C0,63.6,63.6,0,141.7,0c78.2,0,141.7,63.6,141.7,141.7
				C283.5,219.9,219.9,283.5,141.7,283.5"/>
		</g>
		<g>
			<defs>
				<rect id="SVGID_11_" y="0" width="283.5" height="283.5"/>
			</defs>
			<clipPath id="SVGID_12_">
				<use xlink:href="#SVGID_11_"  style="overflow:visible;"/>
			</clipPath>
			<path class="st7" d="M172.4,129.2c0-17-13.8-30.6-30.7-30.6c-17,0-30.6,13.8-30.6,30.8c0,6.1,2.1,11.9,5,16.7v0l-0.1,0
				c0.2,0.3,0.3,0.6,0.5,0.8l25.2,37.8l25.3-37.9c0.1-0.2,0.2-0.6,0.4-0.8l0.1-0.5C170.6,141.7,172.4,135.4,172.4,129.2"/>
		</g>
		<g>
			<defs>
				<rect id="SVGID_13_" y="0" width="283.5" height="283.5"/>
			</defs>
			<clipPath id="SVGID_14_">
				<use xlink:href="#SVGID_13_"  style="overflow:visible;"/>
			</clipPath>
			<path class="st8" d="M172.4,129.2c0-17-13.8-30.6-30.7-30.6c-17,0-30.6,13.8-30.6,30.8c0,6.1,2.1,11.9,5,16.7v0l-0.1,0
				c0.2,0.3,0.3,0.6,0.5,0.8l25.2,37.8l25.3-37.9c0.1-0.2,0.2-0.6,0.4-0.8l0.1-0.5C170.6,141.7,172.4,135.4,172.4,129.2z"/>
		</g>
	</g>
</g>
<g>
	<path d="M177.9,112.2c4.6,0,8.3-3.7,8.3-8.3c0-4.6-3.7-8.3-8.3-8.3c-4.6,0-8.3,3.7-8.3,8.3c-0.1,4.5,3.6,8.3,8.1,8.3
		C177.7,112.2,177.8,112.2,177.9,112.2z"/>
	<path d="M140.9,105.4c-19.5,0.5-34.8,16.7-34.3,36.1c0.5,19.5,16.7,34.8,36.1,34.3c19.1-0.5,34.3-16,34.4-35.1
		C176.8,121,160.6,105.2,140.9,105.4z M140.9,163.4c-12.6,0-22.8-10.3-22.8-22.9c0-12.6,10.3-22.8,22.9-22.8
		c12.6,0,22.8,10.3,22.8,22.9c0,12.6-10.2,22.9-22.8,22.9c0,0-0.1,0-0.1,0V163.4z"/>
	<path d="M112.8,72.3c-21.3-1.1-39.5,15.2-40.6,36.5c-0.1,1.3-0.1,2.6,0,3.9v57c-0.5,11,3.7,21.6,11.5,29.4
		c7.9,7.4,18.3,11.4,29.1,11h56.7c10.8,0.3,21.3-3.6,29.1-11c7.6-7.9,11.7-18.5,11.5-29.4v-57c0.4-10.8-3.5-21.3-11-29
		c-7.7-7.6-18.2-11.7-29-11.4H112.8z M197.6,112.7v57c0.4,7.5-2.5,14.9-7.8,20.2c-5.5,5-12.8,7.6-20.3,7.3h-56.7
		c-7.4,0.2-14.7-2.4-20.3-7.3c-5.3-5.6-8.1-13-7.8-20.7v-57C84.4,104.8,87,97.5,92,92c5.6-5,12.8-7.5,20.3-7.2h57.2
		c7.7-0.4,15.3,2.4,20.8,7.8C195.3,98.1,197.9,105.3,197.6,112.7z"/>
</g>
<g>
	<defs>
		<rect id="SVGID_15_" x="-0.6" y="-0.5" width="283.5" height="283.5"/>
	</defs>
	<clipPath id="SVGID_16_">
		<use xlink:href="#SVGID_15_"  style="overflow:visible;"/>
	</clipPath>
</g>
<circle class="st9" cx="141.2" cy="141.2" r="124"/>
</svg>
