<?xml version="1.0" encoding="utf-8"?>
<!-- Generator: Adobe Illustrator 23.0.2, SVG Export Plug-In . SVG Version: 6.00 Build 0)  -->
<svg version="1.1" id="Layer_1" xmlns="http://www.w3.org/2000/svg" xmlns:xlink="http://www.w3.org/1999/xlink" x="0px" y="0px"
	 viewBox="0 0 283.5 283.5" style="enable-background:new 0 0 283.5 283.5;" xml:space="preserve">
<style type="text/css">
	.st0{display:none;}
	.st1{display:inline;}
	.st2{clip-path:url(#SVGID_2_);fill:#231F20;}
	.st3{clip-path:url(#SVGID_4_);fill:#231F20;}
	.st4{clip-path:url(#SVGID_6_);fill:#231F20;}
	.st5{clip-path:url(#SVGID_8_);fill:#231F20;}
	.st6{clip-path:url(#SVGID_10_);fill:none;stroke:#000000;stroke-width:1.159;}
	.st7{clip-path:url(#SVGID_12_);fill:#231F20;}
	.st8{clip-path:url(#SVGID_14_);fill:#231F20;}
	.st9{fill:none;stroke:#000000;stroke-width:20;stroke-miterlimit:10;}
</style>
<g id="Layer_3" class="st0">
	<g class="st1">
		<g>
			<g>
				<defs>
					<rect id="SVGID_1_" x="0" y="0" width="283.5" height="283.5"/>
				</defs>
				<clipPath id="SVGID_2_">
					<use xlink:href="#SVGID_1_"  style="overflow:visible;"/>
				</clipPath>
				<path class="st2" d="M141.7,33.7c-59.6,0-108.1,48.5-108.1,108.1c0,59.6,48.5,108.1,108.1,108.1c59.6,0,108.1-48.5,108.1-108.1
					C249.8,82.1,201.3,33.7,141.7,33.7 M141.7,283.5C63.6,283.5,0,219.9,0,141.7C0,63.6,63.6,0,141.7,0
					c78.2,0,141.7,63.6,141.7,141.7C283.5,219.9,219.9,283.5,141.7,283.5"/>
			</g>
		</g>
		<g>
			<g>
				<defs>
					<rect id="SVGID_3_" x="0" y="0" width="283.5" height="283.5"/>
				</defs>
				<clipPath id="SVGID_4_">
					<use xlink:href="#SVGID_3_"  style="overflow:visible;"/>
				</clipPath>
				<path class="st3" d="M175.1,164.7h-66.8v-42.3l30.8,24.6c0.8,0.6,1.7,0.9,2.6,0.9c0.9,0,1.8-0.3,2.6-0.9l30.8-24.6V164.7z
					 M166.4,118.8l-24.6,19.7l-24.6-19.7C117.1,118.8,166.4,118.8,166.4,118.8z M183.5,115.8L183.5,115.8c-0.3-3-2.9-5.4-5.9-5.4
					h-71.7c-3.1,0-5.6,2.3-5.9,5.3l0,0l0,0c0,0.2,0,0.4,0,0.5v50.8c0,3.3,2.7,5.9,5.9,5.9h71.7c3.3,0,5.9-2.7,5.9-5.9v-50.8
					C183.5,116.2,183.5,116,183.5,115.8L183.5,115.8z"/>
			</g>
		</g>
	</g>
</g>
<g id="Layer_4" class="st0">
	<g class="st1">
		<g>
			<g>
				<defs>
					<rect id="SVGID_5_" y="0" width="283.5" height="283.5"/>
				</defs>
				<clipPath id="SVGID_6_">
					<use xlink:href="#SVGID_5_"  style="overflow:visible;"/>
				</clipPath>
				<path class="st4" d="M141.7,33.6c-59.6,0-108.1,48.5-108.1,108.1c0,59.6,48.5,108.1,108.1,108.1c59.6,0,108.1-48.5,108.1-108.1
					S201.3,33.6,141.7,33.6 M141.7,283.5C63.6,283.5,0,219.9,0,141.7C0,63.6,63.6,0,141.7,0c78.2,0,141.7,63.6,141.7,141.7
					C283.5,219.9,219.9,283.5,141.7,283.5"/>
			</g>
		</g>
		<g>
			<g>
				<defs>
					<rect id="SVGID_7_" y="0" width="283.5" height="283.5"/>
				</defs>
				<clipPath id="SVGID_8_">
					<use xlink:href="#SVGID_7_"  style="overflow:visible;"/>
				</clipPath>
				<path class="st5" d="M172.4,129.2c0-17-13.8-30.6-30.7-30.6c-17,0-30.6,13.8-30.6,30.8c0,6.1,2.1,11.9,5,16.7v0l-0.1,0
					c0.2,0.3,0.3,0.6,0.5,0.8l25.2,37.8l25.3-37.9c0.1-0.2,0.2-0.6,0.4-0.8l0.1-0.5C170.6,141.7,172.4,135.4,172.4,129.2"/>
			</g>
		</g>
		<g>
			<g>
				<defs>
					<rect id="SVGID_9_" y="0" width="283.5" height="283.5"/>
				</defs>
				<clipPath id="SVGID_10_">
					<use xlink:href="#SVGID_9_"  style="overflow:visible;"/>
				</clipPath>
				<path class="st6" d="M172.4,129.2c0-17-13.8-30.6-30.7-30.6c-17,0-30.6,13.8-30.6,30.8c0,6.1,2.1,11.9,5,16.7v0l-0.1,0
					c0.2,0.3,0.3,0.6,0.5,0.8l25.2,37.8l25.3-37.9c0.1-0.2,0.2-0.6,0.4-0.8l0.1-0.5C170.6,141.7,172.4,135.4,172.4,129.2z"/>
			</g>
		</g>
	</g>
</g>
<g id="Layer_2" class="st0">
	<g class="st1">
		<g>
			<g>
				<defs>
					<rect id="SVGID_11_" y="0" width="283.5" height="283.5"/>
				</defs>
				<clipPath id="SVGID_12_">
					<use xlink:href="#SVGID_11_"  style="overflow:visible;"/>
				</clipPath>
				<path class="st7" d="M141.7,33.6c-59.6,0-108.1,48.5-108.1,108.1c0,59.6,48.5,108.1,108.1,108.1c59.6,0,108.1-48.5,108.1-108.1
					S201.3,33.6,141.7,33.6 M141.7,283.5C63.6,283.5,0,219.9,0,141.7C0,63.6,63.6,0,141.7,0c78.2,0,141.7,63.6,141.7,141.7
					C283.5,219.9,219.9,283.5,141.7,283.5"/>
			</g>
		</g>
		<g>
			<g>
				<defs>
					<rect id="SVGID_13_" y="0" width="283.5" height="283.5"/>
				</defs>
				<clipPath id="SVGID_14_">
					<use xlink:href="#SVGID_13_"  style="overflow:visible;"/>
				</clipPath>
				<path class="st8" d="M173.6,134c0,12.6,0,25.2,0,37.7c0,1.8-1.5,3.4-3.2,3.4h-57.3c-1.7,0-3.2-1.6-3.2-3.4c0-12.6,0-25.2,0-37.8
					v-0.2c2.6,0,5.2,0,7.8,0c-2,7.2-1.5,14.2,2,20.8c2.3,4.4,5.6,7.9,9.8,10.3c8.3,4.9,18.7,4.4,26.5-1.2c3-2.2,5.5-4.9,7.4-8.1
					c1.9-3.3,3.1-6.8,3.5-10.6c0.4-3.8,0.1-7.5-1-11.2h7.8L173.6,134L173.6,134z M141.7,124.5c9.2,0,16.7,8,16.5,17.6
					c-0.2,9.4-7.7,17.1-16.9,16.9c-8.9-0.2-16.2-7.9-16.1-17.5C125.4,132.1,132.7,124.5,141.7,124.5 M162.6,106.1c2.6,0,5.1,0,7.7,0
					c1.8,0,3.3,1.5,3.3,3.5c0,2.7,0,5.4,0,8.1c0,1.8-1.4,3.3-3.1,3.4c-1.3,0-2.7,0-4,0c-1.2,0-2.5,0-3.7,0c-1.5,0-2.8-0.9-3.2-2.3
					c-0.1-0.4-0.2-0.8-0.2-1.2c0-2.7,0-5.3,0-8C159.3,107.6,160.8,106.1,162.6,106.1 M182.3,106.6c-0.7-3.8-3.7-6.8-7.4-7.3
					c-0.1,0-0.3-0.1-0.4-0.1h-65.3c-0.4,0.1-0.8,0.1-1.2,0.2c-3.6,0.9-6.3,3.9-6.8,7.7c0,0.2,0,0.3-0.1,0.5v68.3
					c0.1,0.4,0.1,0.9,0.2,1.3c0.8,3.7,3.8,6.5,7.4,7c0.2,0,0.3,0.1,0.5,0.1h65.1c0.4-0.1,0.9-0.1,1.3-0.2c3.3-0.7,6-3.6,6.7-7.1
					c0.1-0.4,0.1-0.8,0.2-1.1v-68.1C182.4,107.3,182.3,106.9,182.3,106.6"/>
			</g>
		</g>
	</g>
</g>
<g>
	<defs>
		<rect id="SVGID_15_" x="1" y="0" width="283.5" height="283.5"/>
	</defs>
	<clipPath id="SVGID_16_">
		<use xlink:href="#SVGID_15_"  style="overflow:visible;"/>
	</clipPath>
</g>
<circle class="st9" cx="143" cy="140.9" r="124"/>
<path d="M213.3,87.1c-5.7,3.4-11.9,5.7-18.3,7c-10.9-11.6-29.1-12.3-40.7-1.4c-7.6,7.1-10.8,17.6-8.4,27.7
	c-23.2-1.1-44.8-12.1-59.4-30.1c-2.6,4.4-4,9.4-3.9,14.5c0,9.6,4.8,18.7,12.8,24c-4.6-0.1-9.1-1.2-13.1-3.4l0,0
	c0.1,13.6,9.7,25.3,23.1,28c-2.5,0.7-5,1-7.6,1c-1.9,0-3.8-0.2-5.6-0.5c3.8,11.8,14.6,19.8,27,20c-10.2,8-22.8,12.4-35.8,12.3
	c-2.3,0-4.6-0.1-6.9-0.4c38.1,24.5,88.9,13.5,113.4-24.6c8.5-13.1,13-28.4,13.1-44.1c0-1.3,0-2.5,0-3.8c5.6-4.1,10.5-9.1,14.4-14.9
	c-5.3,2.3-10.8,3.9-16.5,4.5C206.6,99.5,211.1,93.8,213.3,87.1z"/>
</svg>
